<svg xmlns="http://www.w3.org/2000/svg" width="76.373" height="74.392" viewBox="0 0 76.373 74.392">
  <g id="LOGO" transform="translate(-305.386 -71.79)">
    <g id="Group_112" data-name="Group 112" transform="translate(305.397 120.411)">
      <path id="Path_1" data-name="Path 1" d="M314.537,222.981c0-1.3-.644-2.857-3.711-2.857H305.42v9.35H307.3v-3.624h3.524C313.893,225.851,314.537,224.29,314.537,222.981Zm-7.236-1.093h3.256c1.981,0,2.145.523,2.145,1.105s-.164,1.093-2.145,1.093H307.3Z" transform="translate(-305.42 -219.913)" fill="#cc0200"/>
      <path id="Path_2" data-name="Path 2" d="M348.741,225.553v-5.429H346.86v5.429c0,1.625-.954,2.414-2.917,2.414s-2.917-.789-2.917-2.414v-5.429h-1.881v5.429c0,2.664,1.7,4.131,4.8,4.131S348.741,228.217,348.741,225.553Z" transform="translate(-328.043 -219.913)" fill="#cc0200"/>
      <path id="Path_3" data-name="Path 3" d="M386.066,226.664a2.424,2.424,0,0,0-1.133-2.122,2.077,2.077,0,0,0,.841-1.77c0-2.647-2.8-2.647-3.723-2.647H376.7v9.35h4.775C382.967,229.474,386.066,229.474,386.066,226.664Zm-4.646-4.822c1.855,0,2.473.136,2.473.941,0,.264,0,.965-2.122.965h-3.186v-1.906Zm.725,5.869h-3.56v-2.245h3.677c1.9,0,1.9.815,1.9,1.163C384.161,227.278,383.818,227.71,382.144,227.71Z" transform="translate(-353.236 -219.913)" fill="#cc0200"/>
      <path id="Path_4" data-name="Path 4" d="M421.77,227.71h-6.442v-7.586h-1.881v9.35h8.323Z" transform="translate(-377.884 -219.913)" fill="#cc0200"/>
      <rect id="Rectangle_1" data-name="Rectangle 1" width="1.881" height="9.35" transform="translate(45.73 0.211)" fill="#cc0200"/>
      <path id="Path_5" data-name="Path 5" d="M467.077,226.559l.2-.388-1.671-.815-.195.359a3.3,3.3,0,0,1-3.178,1.775c-2.171,0-3.467-1.112-3.467-2.975,0-2.168,1.166-3.314,3.373-3.314a3.067,3.067,0,0,1,3.15,1.717l.172.4,1.667-.768-.169-.384c-.739-1.682-2.545-2.686-4.832-2.686-3.248,0-5.265,1.879-5.265,4.9,0,2.353,1.386,4.868,5.277,4.868C464.525,229.255,466.14,228.373,467.077,226.559Z" transform="translate(-407.007 -219.484)" fill="#cc0200"/>
      <rect id="Rectangle_2" data-name="Rectangle 2" width="1.881" height="9.35" transform="translate(62.441 0.211)" fill="#cc0200"/>
      <path id="Path_6" data-name="Path 6" d="M512.715,223.319c-1.727-.158-2.775-.3-2.775-1.024,0-.951,1.556-1.093,2.484-1.093a3.607,3.607,0,0,1,3.1,1.272l.33.375,1.376-1.119L517,221.4c-.322-.45-1.6-1.92-4.555-1.92-3.839,0-4.412,1.864-4.412,2.975,0,2.236,2.49,2.477,4.491,2.67,1.763.17,2.92.339,2.92,1.094,0,1.233-2.4,1.269-2.672,1.269-2.346,0-3.051-.939-3.516-1.56l-.273-.363-1.14.972-.324.293.292.326a5.663,5.663,0,0,0,4.844,2.1c2.165,0,4.693-.794,4.693-3.033C517.351,223.741,514.781,223.507,512.715,223.319Z" transform="translate(-440.99 -219.484)" fill="#cc0200"/>
      <path id="Path_7" data-name="Path 7" d="M321.289,274.43h3.366a2.765,2.765,0,0,1-2.835,1.66c-2.141,0-3.419-1.112-3.419-2.975a2.968,2.968,0,0,1,3.326-3.314,3.136,3.136,0,0,1,2.988,1.673l.184.42,1.622-.855-.161-.364a4.758,4.758,0,0,0-4.6-2.591c-3.248,0-5.266,1.879-5.266,4.9,0,2.353,1.386,4.868,5.277,4.868a4.928,4.928,0,0,0,2.987-.831v.691h1.764v-5.049h-5.236Z" transform="translate(-312.85 -252.085)" fill="#cc0200"/>
      <path id="Path_8" data-name="Path 8" d="M365.645,271.523c0-1.277-.654-2.8-3.769-2.8H356.54v9.35h1.881V274.31h2.7l2.735,3.764h2.338l-2.88-3.887A2.678,2.678,0,0,0,365.645,271.523Zm-7.224-1.035h3.221c1.814,0,2.168.375,2.168,1.023,0,.671-.345,1.035-2.168,1.035h-3.221Z" transform="translate(-339.711 -252.514)" fill="#cc0200"/>
      <path id="Path_9" data-name="Path 9" d="M395.386,268.084c-3.233,0-5.406,1.984-5.406,4.938,0,3.321,2.8,4.833,5.406,4.833s5.406-1.512,5.406-4.833C400.792,270.068,398.62,268.084,395.386,268.084Zm0,8.007a3.173,3.173,0,0,1-3.5-3.255c0-1.786,1.44-3.034,3.5-3.034s3.5,1.247,3.5,3.034A3.173,3.173,0,0,1,395.386,276.091Z" transform="translate(-362.143 -252.085)" fill="#cc0200"/>
      <path id="Path_10" data-name="Path 10" d="M436.816,274.153c0,1.624-.954,2.414-2.917,2.414s-2.917-.79-2.917-2.414v-5.429H429.1v5.429c0,2.664,1.7,4.132,4.8,4.132s4.8-1.467,4.8-4.132v-5.429h-1.881Z" transform="translate(-388.385 -252.514)" fill="#cc0200"/>
      <path id="Path_11" data-name="Path 11" d="M471.285,268.724h-5.406v9.35h1.881v-3.624h3.524c3.067,0,3.711-1.56,3.711-2.87S474.352,268.724,471.285,268.724Zm-3.524,1.764h3.255c1.981,0,2.145.523,2.145,1.1s-.164,1.094-2.145,1.094H467.76Z" transform="translate(-413.056 -252.514)" fill="#cc0200"/>
      <path id="Path_12" data-name="Path 12" d="M501.129,274.111h5.47v-1.764h-5.47v-1.859h6.546v-1.764h-8.427v9.35h8.567V276.31h-6.686Z" transform="translate(-435.439 -252.514)" fill="#cc0200"/>
    </g>
    <g id="Group_114" data-name="Group 114" transform="translate(305.386 71.79)">
      <g id="Group_113" data-name="Group 113">
        <path id="Path_13" data-name="Path 13" d="M368.521,135.56l-5.6-3.31a4.231,4.231,0,0,0,3.014-1.013l1.706,2.084-1.043-2.582c1.134-.889,2.061-1.846,3.221-1.874,3.162-.078.947,3.718,2.1,3.731,1.292.011,2.693-4.227-.406-6.088-3.207-1.941-6.009.861-8.278.385l8.5-3.8H359.315l-.441-.833a4.106,4.106,0,0,0,4.922-.983l3.537.51-2.923-1.143c.7-.73,1.288-1.3,2.027-1.015,1.048.4,1.663,1.323,3.485,1.343,3.075.035,5.313-5.432,1.249-7.8.308,3.9-1.506,4.092-4.656,2.022l1.08-1.763-1.613,1.42c-3.026-1.346-4.5,1.329-5.775,2.2s-2.441-.868-3.99,1.191c2.309-.76,3.486,1.447,5,0-.629,3.911-2.875-1.191-5.113.76,1.94.145,2.954,1.881,4.5,1.881,2.847,0,.309-5.477,4.317-5.477l-.665-.427c2.273-.213,2.388,2.058,5.813,2.1.355.516-.895.556-1.773.256-.143.729,4.65,2.359,3.5-3.088,1.51.819,1.181,4.245-.232,5.547-.274.252-.53.377-.7.114-.386-.583.6-.573.884-1.455a3.17,3.17,0,0,1-4.151-.3c-1.246-1.161-3.116-2.572-3.919-.13s-1.467,3.578-2.94,3.6c-2.027.033-4.176-3.366-6.424-1.487,4.3.4,5.314,7.234,9.1,7.32,2.94,0,3.6-1.291,5.515-1.291s3.926,1.01,3.926,3.533a3.653,3.653,0,0,1-.8,2.382,4.986,4.986,0,0,0,.295-2.812,3.062,3.062,0,0,0-3.248-2.423c-2.36,0-4.259,3.866-6.886,3.866-5.255,0-6.606-10.133-12.1-8.574,4.047,2.734,4.491,7.108,6.668,8.786,2.208,1.7,4.835,1,6.292,2.286a4.169,4.169,0,0,1,1.036,2.353h-.5a3.142,3.142,0,0,0-.878-1.33c-1.261-1.324-5.044-.743-6.783-2.618s-3.01-7.522-6.431-8.386c2.984,1.914,3.648,6.853,5.785,9.273s4.954,1.138,6.251,2.408a7.965,7.965,0,0,1,.6.654H359.7a4.19,4.19,0,0,0-.708-.068,11.791,11.791,0,0,0-1.2.068h-3.375a2.79,2.79,0,0,1-1.219-.751c-1.694-1.789-1.537-3.67-1.4-5.892.328,2.088.733,6.887,4.319,6.349-4.513-1.542-1.889-9.275-7.4-11.259-.6-.218-.391-2.16,1.112-2.45-2.978.572-2.961-.518-.857-2.708-1.3.826-2.711.587-3.025,1.523,0,0,2.441,3.832,2.441,4.58a13.868,13.868,0,0,1-1.785,3.866,6.829,6.829,0,0,1-3.06.191,2.628,2.628,0,0,1-.89-2.317c.375-.8,3.4-1.456,3.45-2.639.039-.929-1.218-1.018-1.176-.53.728.244,1.041,1.317-1.094,1.811l.482-.769s-1.582,1.263-1.662,1.317a1.2,1.2,0,0,1-.684.007c-.232-.074-2.517-1.171-2.127-2.257a6.778,6.778,0,0,0,2.422.3c1.739,0,1.895-.753,1.895-.753a7.572,7.572,0,0,1-3.744,0c-.75-.175.045-1.121.309-1.133h1.8c.109,0,.261-.251.015-.266-.181-.005-1.327-.035-1.417-.316-.152-.481-.461-3.491-.461-3.491s.393-.937.065-1.247-.481-.15-.481-.15c.746,4.18-2.458,6.783-4.29,6.279l-.216-.038a5.7,5.7,0,0,0,1.627.822A4.336,4.336,0,0,1,332,121.022c-.3.153-.306.965-.267,1.482a2.3,2.3,0,0,1-.489-2.848c-.872.42-.906.554-.906.554.034-.718,1.291-1.186,1.926-2.022a1.686,1.686,0,0,0-.854-2.664,2.392,2.392,0,0,1-1.853,2.6c-1.264.418-1.049-.728-2.222-.473,1.917.437,1.815,3.085,3.728,4.174-2.555-.6-3-4.073-6.106-3.729,1.789-2.548,4.616-.359,5.787-2.124-3.027.693-5.088-1.862-5.439-4.663-.535-4.288-4.154-2.174-4.095-4.288,1.821.822,5.862-2.3,7.052,1.255,1.25,3.719,3.769,5.233,6.036,3.515l-9.885-10.029,1.249,4.2c-2.581.509-5.695-1.03-4.006-4.64-2.442-1.135-5.677,2.926-2.692,6.109,1.38,1.466,4.744.927,5.629,3.93l-3.2-.259,3.291.861.981,2.913L318,111.112l4.716,5.488c-2.755,1.458-3.439-2.717-7-2.628-2.493.06-5.284,2.628-4.123,5.631,3.728-2.26,4.928-.649,6.511.919l-2.3,1.226,2.717-.823a5.071,5.071,0,0,0,4.11,1.511c3.221-.24,6.064-1.279,6.792-.4.563.665-.083,1.062-1.245,1.062h-15.4l6.174,3.309c-.6.462-2.318,2.574-3.5,2.574s-3.856-1.829-4.564,1.372c2.745-.469,4.136,5.529,9.908.745l-2.7,4.466H305.386v1.534h76.285V135.56ZM365.5,117.423c1.417.61-2.968,4.879-4.313,4.723C363.994,121.314,364.088,116.81,365.5,117.423Zm.576,12.6c.993-2.643,4.1-3.779,5.387-1.467.063.115-.035.2-.26-.017-1.608-1.611-3.669-.08-4.959,1.6C366.063,130.376,366,130.226,366.079,130.024Zm-45.031-28.3c-.811,1.412-.653,3.99,2.6,4.755C318.2,107.687,318.337,101.506,321.048,101.721Zm-4.408,16.815a4.587,4.587,0,0,0-4.731.261C312.66,116.308,317.3,116.1,316.641,118.536Zm1.1-.987a2.828,2.828,0,0,0-1.106-1.071,4.576,4.576,0,0,0-1.624-.128c-.639.031-1.192.057-1.362-.339-.114-.258.008-.532.341-.774a2.652,2.652,0,0,1,1.344-.437,1.853,1.853,0,0,1,1.377.385c.316.282.444.305.5.279.08-.039.059-.226.052-.353-.013-.093-.028-.166.028-.158a2.821,2.821,0,0,1,1.787,1.252,4.513,4.513,0,0,0,4.818,1.83C323.169,120.588,319.053,119.83,317.741,117.549Zm2.32,3.483c-.153-1.117,5.456-1.944,5.5-.344C325.6,122.085,320.226,122.264,320.06,121.032Zm28.964,6.887c-1.86,4,2.725,6.5,3.582,7.292a2.413,2.413,0,0,1,.295.349h-1.547a3.928,3.928,0,0,0-1.479-1.924,8.376,8.376,0,0,1,.9,1.924h-.735C348.97,133.448,347.2,131.836,349.024,127.918Zm-.461,7.641h-.654l-.758-2.182A3.872,3.872,0,0,1,348.563,135.56Zm-1.871,0h-.716a5.4,5.4,0,0,0-.28-4.017C346.892,132.525,346.878,134.053,346.692,135.56Zm-1.271,0h-.64a3.948,3.948,0,0,0-.441-3.368A3.326,3.326,0,0,1,345.421,135.56Zm-4.746,0c.376-1.652-.305-2.156-1.7-3.643,2.093,1.44,2.849,2.433,2.71,3.643Zm1.7-2.9a4.5,4.5,0,0,1,1.362,2.9H343.1A5.736,5.736,0,0,0,342.374,132.662Zm-.112-2.835c.917,0,2.656-.049,2.7-.049.246,0,.3.081.306.123.006.093-.115.555-.3.6a10.511,10.511,0,0,1-5.421,0c-.181-.048-.309-.51-.3-.6.007-.043.053-.123.3-.123C339.555,129.778,341.347,129.827,342.263,129.827Zm-2.648-6.3c-.742.244-.868,1.443,1.287,1.931-.7.1-2.419-.218-2.471-1.4C338.386,123.124,339.642,123.035,339.614,123.523Zm-2.11,2.045a13.071,13.071,0,0,1,4.127,1.124,2.6,2.6,0,0,1-.892,2.317c-.493.147-2.905-.108-3.255-1.135,1.45.39,1.548-.153,1.548-.153a2.3,2.3,0,0,1-1.856-.909,1.649,1.649,0,0,0,1.53-.015s-2.01-.768-2.072-1.229Zm-2,2.232.049-.39c.132,4.793,3.617,5.553,3.617,7.936,0,.073-.007.143-.011.214h-.613a1.8,1.8,0,0,0-.378-1.3c-2.27-3.029-2.367-3.679-2.367-3.679.195,2.3,1.658,2.591,2.01,4.976h-.943C336.515,133.774,334.7,133.074,335.5,127.8Zm.209,7.76h-1.681l.894-1.439A3.686,3.686,0,0,1,335.709,135.56Zm-2.724,0h-1.1c1.649-3.068.729-8.052,2.151-9.585C333.05,127.752,334.609,132.045,332.986,135.56Zm.451-11.553c-.671.6-3.742,3.291-2.785,10.635.969-1.585.14-7.592,3-9.77-2.005,2.443-.942,6.77-2.393,10.689h-1.408C330.253,132.4,328.5,127.655,333.437,124.006Zm-5.65,11.553h-.65a13.324,13.324,0,0,0,1.19-2.327A5.128,5.128,0,0,1,327.786,135.56Zm3.175-12.657c.583.649-3.092,2.315-4.9,1.678C329.087,124.622,330.361,122.247,330.961,122.9Zm-4.193,2.419a5.441,5.441,0,0,0,3.837-1.21c-.205,1.5-1.8,2.013-3.817,2.013s-3.882-2.229-5.419-.74c2.7-.317,3.106,2.539,6.161,1.579-2.642,2.842-4.575-2.169-7.612-.72C321.455,122.574,324.7,125.322,326.768,125.322ZM311.729,129.9c1.576-2.333,2.8.88,5.421-.907.872,1.374-1.266,2.231-2.513,1.467A3.344,3.344,0,0,0,311.729,129.9Zm7.667,1.663c-1.156.9-4.106,1.8-4.064-.127,3.068.594,3.772-3.763,6.5-2.479C321.147,129.081,320.535,130.674,319.4,131.559Zm8.577-.98a9.664,9.664,0,0,1-.618,3.744l-4.432,1.237h-3.949Z" transform="translate(-305.386 -91.476)" fill="#cc0200"/>
        <path id="Path_14" data-name="Path 14" d="M421.935,135.171c-2.138.233-1.8,3.135-.194,3.135s1.843-.749,3.061-.749,1.649.8,2.628.8,1.551-.7,1.113-1.312c-.632,1.032-1.752-.374-2.575-.374a4.88,4.88,0,0,0-2.624.935c-.923.471-1.8.025-1.46-.517C421.178,137.077,420.721,136.2,421.935,135.171Z" transform="translate(-382.56 -114.306)" fill="#cc0200"/>
        <path id="Path_15" data-name="Path 15" d="M441.052,99.829c-2.068,3.071.671,6.223-3.668,7.313,5.154.052,2.475-4.341,4.355-6.87s4.013-1.594,4.7-4.52C445.356,98.132,442.233,98.067,441.052,99.829Z" transform="translate(-393.93 -87.864)" fill="#cc0200"/>
        <path id="Path_16" data-name="Path 16" d="M427.847,119.253c-1.181-1.159-.649-3.237-.649-3.237S425.338,118.349,427.847,119.253Z" transform="translate(-386.652 -101.457)" fill="#cc0200"/>
        <path id="Path_17" data-name="Path 17" d="M446.146,104.159c-1.656,2.459.253,6.019-3.219,7.051,4.374.108,2.274-4.955,3.854-6.71,1.382-2.016,2.644-1.669,3.3-3.813C449.154,102.4,447.09,102.752,446.146,104.159Z" transform="translate(-397.648 -91.173)" fill="#cc0200"/>
        <path id="Path_18" data-name="Path 18" d="M459.636,133.441a4.2,4.2,0,0,0-5.761,2.955,27.779,27.779,0,0,0,2.852-2.343C457.71,133.409,459.233,133.8,459.636,133.441Z" transform="translate(-404.992 -112.9)" fill="#cc0200"/>
        <path id="Path_19" data-name="Path 19" d="M445.544,149.234c.26.581,1.336-.713,2.961-.217C447.719,148.484,445.4,148.489,445.544,149.234Z" transform="translate(-399.399 -123.343)" fill="#cc0200"/>
        <path id="Path_20" data-name="Path 20" d="M466.819,128.688c-.763,3.544-7.413.922-7.357,5.969C460.87,132.159,467.4,132.381,466.819,128.688Z" transform="translate(-408.739 -109.957)" fill="#cc0200"/>
        <path id="Path_21" data-name="Path 21" d="M441.839,153.954c.125.757,1.458-.818,4.012.279C444.973,152.96,441.648,152.84,441.839,153.954Z" transform="translate(-396.913 -126.394)" fill="#cc0200"/>
        <path id="Path_22" data-name="Path 22" d="M423.363,108.093c-2.576-4.23,3.463-5.2,1.756-8.694C425.337,102.13,419.537,104.949,423.363,108.093Z" transform="translate(-383.646 -90.31)" fill="#cc0200"/>
        <path id="Path_23" data-name="Path 23" d="M423.633,175.617c-.347.246-1.178.487-1.826.922-.066.113-.176.514-.323.608A2.425,2.425,0,0,0,423.633,175.617Z" transform="translate(-383.264 -141.437)" fill="#cc0200"/>
        <path id="Path_24" data-name="Path 24" d="M396.018,145.833c-1-.2-2.2.807-3.361,1.345,1.093,1.574,3.628,1.7,4.645,2.26C397.532,149.089,398.3,146.286,396.018,145.833Zm-1.17,2.557a1.137,1.137,0,0,1,.778-2.1A7.6,7.6,0,0,0,394.849,148.39Zm.791.24a6.3,6.3,0,0,0,.854-1.85A1.047,1.047,0,0,1,395.64,148.63Z" transform="translate(-363.928 -121.44)" fill="#cc0200"/>
        <path id="Path_25" data-name="Path 25" d="M397,137.619c-1.1,1.3-1.884-.126-3.283-.126-1.2-.014-2.6,1.333-2.842.464-.191-.673,1.045-1.8,2.657-1.921a3.9,3.9,0,0,0-4.026,2.271,2.2,2.2,0,0,1-.809-.079c.563,2.366,2.947-.052,4.069-.052C393.776,138.177,396.935,140.462,397,137.619Z" transform="translate(-361.269 -114.84)" fill="#cc0200"/>
        <path id="Path_26" data-name="Path 26" d="M412.955,80.194l1.2,3.127a5.731,5.731,0,0,0-1.095,3.549c0,4.458,3.655,4.874,3.4,3.076-2.568,1.174-2.693-2.543-1.989-3.329a2.3,2.3,0,0,0,1.249,2.656c-2.29-3.792,2.222-5.236,2.222-8.262,0-2.524-1.551-3.344-1.517-5.66.041-2.787,4.142-3.514,4.183-2.441.034.766-2.979.853-3.026,3.728-.046,2.693,2.963,3.34,2.9,5.959-.049,1.713-3.121,3.3-1.2,6.517L423.641,76.8,420.3,80.579c-1.069-1.334-1.909-1.46-1.909-3.854s2.669-2.746,2.669-3.864c0-.9-1.34-1.022-2.318-1.068a4.168,4.168,0,0,0-4.183,4.025c0,2.792,1.887,4.2.014,6.821Zm3.946-.6c1.193,3.777-2.734,4.779-3.061,7.272C413.6,83.85,417.363,82.42,416.9,79.592Z" transform="translate(-377.543 -71.79)" fill="#cc0200"/>
        <path id="Path_27" data-name="Path 27" d="M393.8,154.841c-.618-.415-2.819-.353-4.053-1.616a.648.648,0,0,0,.024.477,1.686,1.686,0,0,0-1.091,2.052s.993-1.208,1.621-1.186a2.716,2.716,0,0,0,.142,1.408l.132.205C390.049,154.182,393.8,154.841,393.8,154.841Z" transform="translate(-361.224 -126.417)" fill="#cc0200"/>
        <path id="Path_28" data-name="Path 28" d="M370.223,85.795l2.75,1.316a5.39,5.39,0,0,0,1.433,3.057c1.066,1.247,3.973,1.615,4.1,4.549.886-.89.192-2.949-1.78-4.117-7.376-4.331,5.036-11.119-2.936-13.551,6.889-.463,3.95,5.766,4.5,8.265.76,3.447,3.944,2.614,5.647,4.771l-1.871-10.466-1.776,7.294c-2.346-.346-1.517-3.674-1.455-6.688.115-5.72-9.669-4.082-8.344-.861.5,1.222,3.812-1.516,3.833,1.379.017,1.968-1.212,3.676-1.35,5.606Zm.93-6.889c-.67-.813,2.642-1.723,3.245.314C372.764,78.153,371.466,79.287,371.153,78.906Z" transform="translate(-348.879 -74.905)" fill="#cc0200"/>
        <path id="Path_29" data-name="Path 29" d="M389.672,102.114c-3.25,6.147,7.989,3.35,6.527,8.578C398.563,105.042,388.443,108.188,389.672,102.114Z" transform="translate(-361.527 -92.131)" fill="#cc0200"/>
        <path id="Path_30" data-name="Path 30" d="M456.851,169.948c1.869-.041,3.347-1.882,4.4-2.557-1.518.349-2.318,1.7-4.4,1.749-3.425.067-5.209-9.611-11.043-7.636C451.82,161.976,451.681,170.067,456.851,169.948Z" transform="translate(-399.581 -131.792)" fill="#cc0200"/>
        <path id="Path_31" data-name="Path 31" d="M390.66,96.253a.836.836,0,0,1-.454-.14c-.774-.488-1.184-1.823-1.969-1.679.455.351.251,1.608.9,2.3a1.649,1.649,0,0,0,1.251.564,1.666,1.666,0,0,0,1.671-1.67,1.648,1.648,0,0,0-.646-1.318c-.59-.459-1.429-.766-3.876-1.6-5.821-1.978,2.894-7.884-1.118-11.191,2.2,4.755-4.228,7.581-.885,10.915,1.451,1.51,4.624,1.281,5.713,2.356a.846.846,0,0,1-.583,1.457Z" transform="translate(-358.487 -78.32)" fill="#cc0200"/>
        <path id="Path_32" data-name="Path 32" d="M380.911,133.028a3.71,3.71,0,0,1-3.318-1.937C377.049,132.376,378.718,135.826,380.911,133.028Z" transform="translate(-353.752 -111.569)" fill="#cc0200"/>
        <path id="Path_33" data-name="Path 33" d="M425.111,178.5c-.066.166-.535.35-1.489.714a2.58,2.58,0,0,1-.715.748C424.046,180.272,425.306,179.116,425.111,178.5Z" transform="translate(-384.219 -143.368)" fill="#cc0200"/>
        <path id="Path_34" data-name="Path 34" d="M444.3,145.923c.239.394.589-.354,1.236-.71C444.691,145.1,444.175,145.709,444.3,145.923Z" transform="translate(-398.555 -121.033)" fill="#cc0200"/>
        <path id="Path_35" data-name="Path 35" d="M432.094,146.242c-1.159-.536-2.352-1.549-3.353-1.346-2.294.455-1.52,3.257-1.295,3.607C428.471,147.942,431,147.816,432.094,146.242Zm-2.19,1.166s-.691-1.942-.778-2.1A1.139,1.139,0,0,1,429.9,147.408Zm-1.649-1.611a6.375,6.375,0,0,0,.854,1.849A1.047,1.047,0,0,1,428.256,145.8Z" transform="translate(-387.057 -120.812)" fill="#cc0200"/>
        <path id="Path_36" data-name="Path 36" d="M452.41,113.18c-1.028,1.126-.955,2.049-2.489,3.031,2,.862,2.054-1.788,4.053-2.364,1.365-.4,2.4,1.249,4.354.355s1.253-4.516,2.2-6.114,3.567-3.083,5.421.134c0,0-3.13-3.08-4.6.6,1.021-.851,2.537-1.112,2.537-.295-.8.255-2.1.728-2.139,3.6-.048,3.344-1.4,4.067-2.451,4.756-1.517,1-5.047.952-5.83,3.232l12.241-5.462h-3.734c.486-2.74-.579-6.818,4.536-5.871.627-1.359-3.63-5.723-7.33-.746l-.354-1.255C458.049,113.405,454.547,110.836,452.41,113.18Zm6.473-3.318c.631,1.081-1.25,3.033-1.25,3.033a.557.557,0,0,1-.143,1.067c-1.11.327-1.992-.922-3.416-.557C454.37,112.9,457.333,113.005,458.883,109.862Z" transform="translate(-402.34 -94.543)" fill="#cc0200"/>
        <path id="Path_37" data-name="Path 37" d="M374.625,129c-5.162.086-1.364-5.575-5.214-6.407,1.985,1.338.9,2.54.91,4.7C370.338,129.913,373.465,130.7,374.625,129Z" transform="translate(-348.334 -105.871)" fill="#cc0200"/>
        <path id="Path_38" data-name="Path 38" d="M433.862,94.693c-.6,1.614-2.249,2.07-3.058,3.471.451.014,2.85-.531,3.738-2.034.853-1.453.017-5.69,2.767-6.723,2.874-1.087,5.883-2.683,2.485-6.151,5.213,1.32,2.285,6.883,1.666,7.7-.59.756-2.51,2.279-2.51,4.72,0,1.81-1.625,3.874-2.89,4.125,1.335.542,3.335-2.517,3.335-2.517l6.5-8.405-3.738,1.93s1.024-.885,1.024-3.815c0-4.145-4.451-4.887-4.409-3.6.035.856,1.514,1.462,1.562,2.871s-1.933,2.208-3.475,2.656l-.69-2.317v2.6C433.641,90.512,434.489,93,433.862,94.693Z" transform="translate(-389.516 -79.188)" fill="#cc0200"/>
      </g>
    </g>
  </g>
</svg>
